<?xml version="1.0" encoding="UTF-8"?>
<svg id="_레이어_2" data-name="레이어 2" xmlns="http://www.w3.org/2000/svg" viewBox="0 0 593.69 126.2">
  <defs>
    <style>
      .cls-1 {
        fill: #70b6e1;
      }

      .cls-2 {
        fill: #002d74;
      }

      .cls-3 {
        fill: #0084c9;
      }
    </style>
  </defs>
  <g id="_레이어_1-2" data-name="레이어 1">
    <g>
      <g>
        <path class="cls-2" d="M184.6,29.34c6.52,0,12.47,1.91,17.22,5.51l.86.65,5.79-8.14-.73-.52c-6.43-4.55-14.43-6.96-23.14-6.96-23.9,0-39.97,17.37-39.97,43.21s16.06,43.21,39.97,43.21c8.63,0,16.59-2.38,23.01-6.9l.74-.52-5.77-8.11-.86.65c-4.71,3.55-10.63,5.43-17.12,5.43-7.54,0-14.23-2.49-19.33-7.19-6.56-6.04-10.01-15.23-9.98-26.57-.03-11.32,3.42-20.51,9.99-26.56,5.11-4.71,11.79-7.2,19.32-7.2Z"/>
        <path class="cls-2" d="M342.43,95.48l-26.98-74.25h-9.99l-26.97,74.25s-1.38,3.69-3.36,8.2l-.56,1.28h12.1l.14-.75c.01-.06,1.12-6.13,2.22-9.26l5.05-14.31h32.76l5.06,14.31c1.1,3.14,2.21,9.2,2.22,9.26l.14.75h12.1l-.56-1.28c-1.98-4.51-3.35-8.17-3.36-8.2ZM323.65,71.69h-26.38l13.19-37.2,13.19,37.2Z"/>
        <path class="cls-2" d="M383.67,59.79l-8.16-3.32c-10.08-4.07-14.62-9.1-13.86-15.38.36-3.33,1.94-6.21,4.58-8.33,3.65-2.94,8.98-4.2,14.98-3.55,6.91.82,12.33,3.98,14.88,8.67l.64,1.19,6.47-7.81-.46-.58c-4.51-5.72-11.72-9.39-20.3-10.34-16.12-1.88-28.93,6.52-30.52,20-1.12,10.38,5.11,18.5,18.53,24.16l9.35,3.91c11.14,4.58,15.38,9.09,14.64,15.58-1.01,8.88-9.86,14.19-21.49,12.92-6.16-.73-11.25-3.1-14.33-6.67l-.71-.82-6.27,7.59.61.59c4.71,4.54,11.51,7.41,19.67,8.31,1.81.21,3.57.32,5.28.32,7.4,0,13.75-1.98,18.57-5.82,4.71-3.75,7.55-9.02,8.23-15.22,1.73-14.65-10.78-21.51-20.33-25.4Z"/>
        <path class="cls-2" d="M444.01,59.79l-8.17-3.32c-10.08-4.07-14.62-9.1-13.86-15.38.36-3.33,1.94-6.21,4.58-8.33,3.65-2.94,8.98-4.2,14.98-3.55,6.91.82,12.33,3.98,14.88,8.67l.64,1.19,6.47-7.81-.46-.58c-4.5-5.72-11.72-9.39-20.3-10.34-16.11-1.88-28.93,6.52-30.52,20-1.12,10.38,5.11,18.5,18.53,24.16l9.35,3.91c11.14,4.58,15.38,9.09,14.64,15.58-1.01,8.88-9.84,14.19-21.49,12.92-6.16-.73-11.25-3.1-14.33-6.67l-.71-.82-6.27,7.59.61.59c4.71,4.54,11.51,7.41,19.67,8.31,1.81.21,3.57.32,5.28.32,7.4,0,13.75-1.98,18.57-5.82,4.71-3.75,7.56-9.02,8.23-15.22,1.73-14.65-10.78-21.51-20.33-25.4Z"/>
        <path class="cls-2" d="M508.99,95.49v-26.25l30.27-48.01h-11.44l-23.81,38.42-23.81-38.42h-11.44l30.27,48.01v26.24c-.05,3.54-.75,8.39-.76,8.44l-.15,1.04h11.8l-.15-1.04s-.71-4.9-.76-8.42Z"/>
        <path class="cls-2" d="M573.21,59.79l-8.17-3.32c-10.08-4.07-14.62-9.1-13.86-15.38.36-3.33,1.94-6.21,4.58-8.33,3.65-2.94,8.98-4.2,14.98-3.55,6.91.82,12.33,3.98,14.88,8.67l.64,1.19,6.47-7.81-.46-.58c-4.5-5.72-11.72-9.39-20.3-10.34-16.11-1.88-28.93,6.52-30.52,20-1.12,10.38,5.11,18.5,18.53,24.16l9.35,3.91c11.14,4.58,15.38,9.09,14.64,15.58-1.01,8.88-9.84,14.19-21.49,12.92-6.16-.73-11.25-3.1-14.33-6.67l-.71-.82-6.27,7.59.61.59c4.71,4.54,11.51,7.41,19.67,8.31,1.81.21,3.57.32,5.28.32,7.4,0,13.75-1.98,18.57-5.82,4.71-3.75,7.56-9.02,8.23-15.22,1.73-14.65-10.78-21.51-20.33-25.4Z"/>
        <path class="cls-2" d="M266.65,95.39c-1.07.22-5.5.43-7.08.5h-29.88s0-65.51,0-65.51c.07-3.48.74-8.07.75-8.11l.15-1.03h-11.67l.15,1.03s.7,4.84.75,8.33v25.96h.01v48.4h36.45c3.05.02,7.45.3,7.49.3l.68.04,3.79-10.24-1.61.33Z"/>
      </g>
      <g>
        <path class="cls-2" d="M64.98,121.47c-31.2-4.83-53.18-34.14-49.11-65.45C19.95,24.7,48.56,3.24,79.76,8.08c11.14,1.72,21.08,6.57,29.12,13.51C99.27,10.78,86.02,3.11,70.79.75,36.48-4.58,5.03,19.04.53,53.47c-4.48,34.43,19.69,66.66,54.01,71.98,14.47,2.24,28.43-.66,40.06-7.34-9.03,3.65-19.16,4.98-29.63,3.36"/>
        <path class="cls-3" d="M110.56,98.84c-21.08,15.8-51.29,11.12-67.5-10.46-16.21-21.61-12.26-51.93,8.83-67.75,7.52-5.64,16.2-8.67,25-9.27-12.02-.81-24.29,2.47-34.6,10.18-23.17,17.4-27.51,50.75-9.7,74.49,17.82,23.75,51.06,28.89,74.24,11.5,9.76-7.32,16.2-17.48,19.02-28.57-3.1,7.66-8.23,14.57-15.29,19.87"/>
        <path class="cls-1" d="M122.47,58.16c-2.83,21.73-22.71,36.64-44.36,33.28-21.68-3.35-36.95-23.7-34.11-45.45,1.01-7.76,4.18-14.64,8.85-20.14-7.31,6.54-12.37,15.68-13.75,26.3-3.13,23.92,13.66,46.3,37.48,49.99,23.84,3.69,45.67-12.71,48.8-36.62,1.31-10.07-.91-19.89-5.72-28.14,2.67,6.39,3.76,13.51,2.81,20.77"/>
      </g>
    </g>
  </g>
</svg>