<?xml version="1.0" encoding="UTF-8"?>
<svg id="_레이어_1" data-name="레이어 1" xmlns="http://www.w3.org/2000/svg" viewBox="0 0 150.19 32.92">
  <defs>
    <style>
      .cls-1 {
        fill: #34373a;
      }
    </style>
  </defs>
  <g>
    <path class="cls-1" d="M0,15.98v2.07c0,.21.17.38.38.38h11.79c.14,0,.26-.07.33-.19l1.19-2.07c.15-.25-.04-.57-.33-.57H.38c-.21,0-.38.17-.38.38Z"/>
    <path class="cls-1" d="M28.97,10.52h-11.79c-.14,0-.26.07-.33.19l-1.19,2.07c-.15.25.04.57.33.57h12.98c.21,0,.38-.17.38-.38v-2.07c0-.21-.17-.38-.38-.38Z"/>
    <path class="cls-1" d="M18.35.19l-5.85,10.14c-.07.12-.07.26,0,.38l1.19,2.07c.15.25.51.25.65,0L20.8,1.6c.1-.18.04-.41-.14-.52L18.87.05c-.18-.1-.41-.04-.52.14Z"/>
    <path class="cls-1" d="M6.06,2.58l-1.79,1.03c-.18.1-.24.34-.14.52l5.86,10.16c.07.12.19.19.33.19h2.39c.29,0,.47-.31.33-.57L6.58,2.72c-.1-.18-.33-.24-.52-.14Z"/>
    <path class="cls-1" d="M10.99,28.76l5.85-10.14c.07-.12.07-.26,0-.38l-1.19-2.07c-.15-.25-.51-.25-.65,0l-6.45,11.18c-.1.18-.04.41.14.52l1.79,1.03c.18.1.41.04.52-.14Z"/>
    <path class="cls-1" d="M23.28,26.36l1.79-1.03c.18-.1.24-.34.14-.52l-5.86-10.16c-.07-.12-.19-.19-.33-.19h-2.39c-.29,0-.47.31-.33.57l6.46,11.18c.1.18.33.24.52.14Z"/>
  </g>
  <g>
    <g>
      <path class="cls-1" d="M61.67,5.52c-5.39,0-9.49,4.42-9.49,9.74,0,9.58,11.75,12.97,18,5.98.14-.15.12-.39-.03-.53l-1.71-1.28c-.16-.14-.39-.13-.53.03-1.57,1.68-3.64,2.65-5.97,2.65-3.3,0-6.12-2.15-6.77-5.41h15.57c.19,0,.36-.15.38-.34.5-5.69-3.49-10.84-9.45-10.84ZM55.17,13.81c1.2-7.1,11.49-7.26,13,0h-13Z"/>
      <g>
        <path class="cls-1" d="M83.16,5.52c-5.39,0-9.49,4.42-9.49,9.74,0,9.58,11.75,12.97,18,5.98.14-.15.12-.39-.03-.53l-1.71-1.28c-.16-.14-.39-.13-.53.03-1.57,1.68-3.64,2.65-5.97,2.65-3.3,0-6.12-2.15-6.77-5.41h15.57c.19,0,.36-.15.38-.34.5-5.69-3.49-10.84-9.45-10.84ZM76.67,13.81c1.2-7.1,11.49-7.26,13,0h-13Z"/>
        <g>
          <path class="cls-1" d="M106.32,5.55c-2.77,0-5.3,1.09-6.96,3.57l-.31-.09v-2.71c0-.19-.16-.35-.35-.35h-2.17c-.19,0-.35.16-.35.35v26.26c0,.19.16.35.35.35h2.17c.19,0,.35-.16.35-.35v-11.07l.31-.09c1.66,2.46,4.19,3.58,6.96,3.58,5.67,0,9.32-4.36,9.32-9.73s-3.65-9.69-9.32-9.69ZM105.99,22.44c-4.1,0-6.97-2.98-7.01-7.2.04-4.18,2.91-7.16,7.01-7.16s6.79,3.24,6.79,7.16-2.5,7.2-6.79,7.2Z"/>
          <g>
            <path class="cls-1" d="M128.44,5.49c-5.8-.29-10.56,4.47-10.27,10.27.25,4.96,4.28,9,9.25,9.25,5.8.29,10.56-4.47,10.27-10.27-.25-4.96-4.28-9-9.25-9.25ZM134.82,15.81c-.26,3.35-2.98,6.06-6.33,6.33-4.26.34-7.78-3.19-7.45-7.45.26-3.35,2.98-6.06,6.33-6.33,4.26-.34,7.78,3.19,7.45,7.45Z"/>
            <path class="cls-1" d="M149.81,8.69c.21,0,.38-.17.38-.38v-2.02c0-.21-.17-.38-.38-.38h-4.74V.65c0-.26-.26-.45-.51-.35l-2.12,1.5c-.14.1-.24.2-.24.35v3.75h-3.1c-.21,0-.38.17-.38.38v2.02c0,.21.17.38.38.38h3.1v10.36c0,1.99.49,3.48,1.47,4.47.98.99,2.3,1.49,3.96,1.49.47,0,.91-.03,1.3-.09.3-.05.61-.11.92-.2.16-.04.27-.2.27-.36v-1.77c0-.25-.24-.43-.48-.36-.17.05-.33.08-.47.11-.28.05-.6.07-.96.07-.59,0-1.13-.11-1.6-.32-.47-.21-.85-.59-1.12-1.14-.27-.55-.41-1.32-.41-2.31v-9.95h4.74Z"/>
          </g>
        </g>
      </g>
    </g>
    <path class="cls-1" d="M51.17,5.91c-2.93.01-5.05.22-6.06,2.92l-.31-.09v-2.45c0-.21-.17-.38-.38-.38h-2.09c-.21,0-.38.17-.38.38v17.89c0,.21.17.38.38.38h2.09c.21,0,.38-.17.38-.38v-9.69c0-3.13,1.34-5.84,4.88-5.84h1.5c.21,0,.38-.17.38-.38v-1.97c0-.21-.17-.38-.38-.38Z"/>
  </g>
</svg>